<svg width="36" height="36" viewBox="0 0 36 36" fill="none" xmlns="http://www.w3.org/2000/svg">
<path d="M14.94 21.06V19.395C14.94 18.75 14.46 18.435 13.875 18.69L6.36003 21.93C5.17503 22.44 4.21503 21.81 4.21503 20.535V18.555C4.21503 17.535 4.98003 16.35 5.92503 15.96L14.475 12.285C14.715 12.165 14.925 11.85 14.925 11.58V6.99C14.925 5.55 15.99 3.825 17.265 3.165C17.715 2.94 18.255 2.94 18.705 3.165C19.995 3.825 21.06 5.535 21.06 6.975V11.565C21.06 11.835 21.27 12.15 21.51 12.27L23.07 12.93L14.94 21.06Z" fill="white"/>
<path opacity="0.4" d="M31.785 18.555V20.535C31.785 21.81 30.825 22.44 29.64 21.93L22.125 18.69C21.525 18.45 21.06 18.75 21.06 19.395V23.76C21.06 24.105 21.255 24.6 21.51 24.84L24.99 28.335C25.35 28.695 25.515 29.415 25.35 29.91L24.675 31.95C24.375 32.835 23.37 33.24 22.545 32.835L18.975 29.835C18.435 29.37 17.55 29.37 17.01 29.835L13.44 32.835C12.615 33.255 11.61 32.835 11.34 31.95L10.665 29.91C10.5 29.4 10.665 28.695 11.025 28.335L14.505 24.84C14.745 24.6 14.94 24.105 14.94 23.76V21.06L23.07 12.93L30.075 15.945C31.02 16.35 31.785 17.535 31.785 18.555Z" fill="white"/>
</svg>
