<svg width="20" height="20" viewBox="0 0 20 20" fill="none" xmlns="http://www.w3.org/2000/svg">
<path d="M18.3334 8.33332V10.8333C18.3334 14.1667 16.6667 15.8333 13.3334 15.8333H12.9167C12.6584 15.8333 12.4084 15.9583 12.25 16.1667L11 17.8333C10.45 18.5667 9.55002 18.5667 9.00002 17.8333L7.75002 16.1667C7.61669 15.9833 7.30835 15.8333 7.08335 15.8333H6.66669C3.33335 15.8333 1.66669 15 1.66669 10.8333V6.66666C1.66669 3.33332 3.33335 1.66666 6.66669 1.66666H11.6667" stroke="black" stroke-width="2" stroke-miterlimit="10" stroke-linecap="round" stroke-linejoin="round"/>
<path d="M16.25 5.83332C17.4006 5.83332 18.3334 4.90058 18.3334 3.74999C18.3334 2.5994 17.4006 1.66666 16.25 1.66666C15.0994 1.66666 14.1667 2.5994 14.1667 3.74999C14.1667 4.90058 15.0994 5.83332 16.25 5.83332Z" stroke="black" stroke-width="2" stroke-linecap="round" stroke-linejoin="round"/>
<path d="M13.3304 9.16667H13.3378" stroke="black" stroke-width="2" stroke-linecap="round" stroke-linejoin="round"/>
<path d="M9.99626 9.16667H10.0037" stroke="black" stroke-width="2" stroke-linecap="round" stroke-linejoin="round"/>
<path d="M6.66209 9.16667H6.66957" stroke="black" stroke-width="2" stroke-linecap="round" stroke-linejoin="round"/>
</svg>
