<svg width="36" height="36" viewBox="0 0 36 36" fill="none" xmlns="http://www.w3.org/2000/svg">
<path opacity="0.4" d="M3.1499 33V9.04504C3.1499 6.03004 4.64998 4.51501 7.63498 4.51501H16.9799C19.965 4.51501 21.4499 6.03004 21.4499 9.04504V33" fill="white"/>
<path d="M16.125 13.5H8.69995C8.08495 13.5 7.57495 12.99 7.57495 12.375C7.57495 11.76 8.08495 11.25 8.69995 11.25H16.125C16.74 11.25 17.25 11.76 17.25 12.375C17.25 12.99 16.74 13.5 16.125 13.5Z" fill="white"/>
<path d="M16.125 19.125H8.69995C8.08495 19.125 7.57495 18.615 7.57495 18C7.57495 17.385 8.08495 16.875 8.69995 16.875H16.125C16.74 16.875 17.25 17.385 17.25 18C17.25 18.615 16.74 19.125 16.125 19.125Z" fill="white"/>
<path d="M12.375 34.125C11.76 34.125 11.25 33.615 11.25 33V27.375C11.25 26.76 11.76 26.25 12.375 26.25C12.99 26.25 13.5 26.76 13.5 27.375V33C13.5 33.615 12.99 34.125 12.375 34.125Z" fill="white"/>
<path d="M34.5 31.875H31.095V27.375C32.52 26.91 33.555 25.575 33.555 24V21C33.555 19.035 31.95 17.43 29.985 17.43C28.02 17.43 26.415 19.035 26.415 21V24C26.415 25.56 27.435 26.88 28.83 27.36V31.875H1.5C0.885 31.875 0.375 32.385 0.375 33C0.375 33.615 0.885 34.125 1.5 34.125H29.895C29.925 34.125 29.94 34.14 29.97 34.14C30 34.14 30.015 34.125 30.045 34.125H34.5C35.115 34.125 35.625 33.615 35.625 33C35.625 32.385 35.115 31.875 34.5 31.875Z" fill="white"/>
</svg>
