<svg width="71" height="70" viewBox="0 0 71 70" fill="none" xmlns="http://www.w3.org/2000/svg">
<rect x="0.333252" width="70" height="70" rx="35" fill="#FF9357"/>
<path opacity="0.4" d="M32.9866 21.9733L26.3333 24.4667C24.8 25.04 23.5466 26.8533 23.5466 28.4933V38.4C23.5466 39.9733 24.5866 42.04 25.8533 42.9867L31.5866 47.2667C33.4666 48.68 36.5599 48.68 38.4399 47.2667L44.1733 42.9867C45.44 42.04 46.4799 39.9733 46.4799 38.4V28.4933C46.4799 26.8533 45.2266 25.04 43.6933 24.4667L37.04 21.9733C35.9066 21.56 34.0933 21.56 32.9866 21.9733Z" fill="black"/>
<path d="M34.8667 34.0666C34.8934 34.0666 34.92 34.0666 34.9467 34.0666H34.9734H35C36.5334 34.0133 37.7334 32.7733 37.7467 31.2266C37.7467 29.6533 36.4667 28.3733 34.8934 28.3733C33.3201 28.3733 32.04 29.6533 32.04 31.2266C32.0667 32.76 33.2667 34.0133 34.8667 34.0666Z" fill="black"/>
<path d="M37.92 36.88C36.3067 35.8133 33.6933 35.8133 32.0667 36.88C31.32 37.3866 30.88 38.1066 30.88 38.8533C30.88 39.6133 31.3067 40.3066 32.0667 40.8133C32.88 41.3466 33.9333 41.6266 34.9867 41.6266C36.04 41.6266 37.1067 41.36 37.9067 40.8133C38.6533 40.3066 39.0933 39.5866 39.0933 38.84C39.1067 38.08 38.68 37.3866 37.92 36.88Z" fill="black"/>
</svg>
