<svg width="36" height="36" viewBox="0 0 36 36" fill="none" xmlns="http://www.w3.org/2000/svg">
<g clip-path="url(#clip0_1_784)">
<path fill-rule="evenodd" clip-rule="evenodd" d="M12.0421 0.453125C10.0609 0.453125 8.16085 1.24015 6.75993 2.64107L0 9.40096V12.4952C0 14.6813 0.93902 16.648 2.43572 18.0141C0.93902 19.3802 0 21.3469 0 23.533V26.6272L6.75993 33.3871C8.16085 34.7881 10.0609 35.5751 12.0421 35.5751C14.2282 35.5751 16.1949 34.6361 17.561 33.1394C18.927 34.6361 20.8938 35.5751 23.0799 35.5751C25.0611 35.5751 26.9611 34.7881 28.362 33.3871L35.122 26.6272V23.533C35.122 21.3469 34.183 19.3802 32.6862 18.0141C34.183 16.648 35.122 14.6813 35.122 12.4952V9.40096L28.362 2.64107C26.9611 1.24015 25.0611 0.453125 23.0799 0.453125C20.8938 0.453125 18.927 1.39214 17.561 2.88884C16.1949 1.39214 14.2282 0.453125 12.0421 0.453125ZM22.6175 18.0141C22.5333 17.9373 22.4507 17.8583 22.3697 17.7774L17.561 12.9686L12.7523 17.7774C12.6713 17.8583 12.5887 17.9373 12.5045 18.0141C12.5887 18.0909 12.6713 18.1699 12.7523 18.2508L17.561 23.0595L22.3697 18.2508C22.4507 18.1699 22.5333 18.0909 22.6175 18.0141ZM19.5122 26.6272V28.105C19.5122 30.0753 21.1095 31.6727 23.0799 31.6727C24.026 31.6727 24.9335 31.2968 25.6026 30.6277L31.2196 25.0107V23.533C31.2196 21.5626 29.6222 19.9653 27.6519 19.9653C26.7057 19.9653 25.7982 20.3412 25.1291 21.0103L19.5122 26.6272ZM15.6098 26.6272L9.99281 21.0103C9.32374 20.3412 8.41631 19.9653 7.47011 19.9653C5.49974 19.9653 3.90244 21.5626 3.90244 23.533V25.0107L9.51937 30.6277C10.1884 31.2968 11.0959 31.6727 12.0421 31.6727C14.0124 31.6727 15.6098 30.0753 15.6098 28.105V26.6272ZM15.6098 7.92323V9.40096L9.99281 15.0179C9.32374 15.687 8.41631 16.0629 7.47011 16.0629C5.49974 16.0629 3.90244 14.4655 3.90244 12.4952V11.0174L9.51937 5.40051C10.1884 4.73144 11.0959 4.35557 12.0421 4.35557C14.0124 4.35557 15.6098 5.95286 15.6098 7.92323ZM25.1291 15.0179L19.5122 9.40096V7.92323C19.5122 5.95286 21.1095 4.35557 23.0799 4.35557C24.026 4.35557 24.9335 4.73144 25.6026 5.40051L31.2196 11.0174V12.4952C31.2196 14.4655 29.6222 16.0629 27.6519 16.0629C26.7057 16.0629 25.7982 15.687 25.1291 15.0179Z" fill="#FF9357"/>
</g>
<defs>
<clipPath id="clip0_1_784">
<rect width="35.122" height="36" fill="white"/>
</clipPath>
</defs>
</svg>
